<?xml version="1.0"?>
<svg xmlns="http://www.w3.org/2000/svg" xmlns:xlink="http://www.w3.org/1999/xlink" xmlns:svgjs="http://svgjs.com/svgjs" version="1.1" width="512" height="512" x="0" y="0" viewBox="0 0 512 512" style="enable-background:new 0 0 512 512" xml:space="preserve" class=""><g><path xmlns="http://www.w3.org/2000/svg" d="m490.667969 171.519531h-469.335938c-11.773437 0-21.332031 9.558594-21.332031 21.332031v255.148438c0 35.285156 28.714844 64 64 64h384c35.285156 0 64-28.714844 64-64v-255.148438c0-11.773437-9.558594-21.332031-21.332031-21.332031zm0 0" fill="#eceff1" data-original="#eceff1" style="" class=""/><path xmlns="http://www.w3.org/2000/svg" d="m448 64h-384c-35.347656 0-64 28.652344-64 64v64.851562h512v-64.851562c0-35.347656-28.652344-64-64-64zm0 0" fill="#2196f3" data-original="#2196f3" style="" class=""/><path xmlns="http://www.w3.org/2000/svg" d="m128 0h-21.332031c-11.777344 0-21.335938 9.558594-21.335938 21.332031v85.335938c0 11.773437 9.558594 21.332031 21.335938 21.332031h21.332031c11.777344 0 21.332031-9.558594 21.332031-21.332031v-85.335938c0-11.773437-9.554687-21.332031-21.332031-21.332031zm0 0" fill="#1976d2" data-original="#1976d2" style=""/><path xmlns="http://www.w3.org/2000/svg" d="m405.332031 0h-21.332031c-11.777344 0-21.332031 9.558594-21.332031 21.332031v85.335938c0 11.773437 9.554687 21.332031 21.332031 21.332031h21.332031c11.777344 0 21.335938-9.558594 21.335938-21.332031v-85.335938c0-11.773437-9.558594-21.332031-21.335938-21.332031zm0 0" fill="#1976d2" data-original="#1976d2" style=""/><g xmlns="http://www.w3.org/2000/svg" fill="#2196f3"><path d="m218.667969 426.667969h-74.667969c-8.832031 0-16-7.167969-16-16v-26.667969c0-29.398438 23.9375-53.332031 53.332031-53.332031 11.757813 0 21.335938-9.578125 21.335938-21.335938 0-11.753906-9.578125-21.332031-21.335938-21.332031h-37.332031c-8.832031 0-16-7.167969-16-16s7.167969-16 16-16h37.332031c29.398438 0 53.335938 23.9375 53.335938 53.332031 0 29.398438-23.9375 53.335938-53.335938 53.335938-11.753906 0-21.332031 9.578125-21.332031 21.332031v10.667969h58.667969c8.832031 0 16 7.167969 16 16s-7.167969 16-16 16zm0 0" fill="#2196f3" data-original="#2196f3" style="" class=""/><path d="m330.667969 426.667969h-37.335938c-8.832031 0-16-7.167969-16-16s7.167969-16 16-16h37.335938c11.753906 0 21.332031-9.578125 21.332031-21.335938 0-11.753906-9.578125-21.332031-21.332031-21.332031h-37.335938c-8.832031 0-16-7.167969-16-16v-64c0-8.832031 7.167969-16 16-16h74.667969c8.832031 0 16 7.167969 16 16s-7.167969 16-16 16h-58.667969v32h21.335938c29.394531 0 53.332031 23.9375 53.332031 53.332031 0 29.398438-23.9375 53.335938-53.332031 53.335938zm0 0" fill="#2196f3" data-original="#2196f3" style="" class=""/></g></g></svg>
