<?xml version="1.0" encoding="iso-8859-1"?>
<!-- Generator: Adobe Illustrator 19.0.0, SVG Export Plug-In . SVG Version: 6.00 Build 0)  -->
<svg version="1.1" id="Capa_1" xmlns="http://www.w3.org/2000/svg" xmlns:xlink="http://www.w3.org/1999/xlink" x="0px" y="0px"
	 viewBox="0 0 512 512" style="enable-background:new 0 0 512 512;" xml:space="preserve">
<path style="fill:#12DB84;" d="M408.65,221.027L304.041,372.16v0.01c16.619,38.524,54.937,65.507,99.572,65.507
	C463.474,437.677,512,389.151,512,329.29C512,271.112,466.178,223.659,408.65,221.027z"/>
<path style="fill:#5FED65;" d="M437.387,227.097c0-0.274-0.007-0.546-0.008-0.82c-9.105-2.981-18.74-4.793-28.729-5.25
	L304.041,372.16v0.01c3.901,9.043,9.011,17.438,15.104,25.01c7.998-2.966,15.732-6.477,23.148-10.499
	c49.771-26.963,85.509-76.55,93.427-134.962C436.824,243.667,437.387,235.443,437.387,227.097z"/>
<path style="fill:#C8E5FC;" d="M407.37,247.835l-78.689,113.672c12.501,29.017,41.332,49.332,74.932,49.332
	c45.037,0,81.548-36.511,81.548-81.548C485.161,285.512,450.663,249.796,407.37,247.835z"/>
<path style="fill:#B8DAF2;" d="M435.35,254.175c-8.666-3.666-18.088-5.892-27.979-6.34l-78.689,113.672
	c3.84,8.915,9.227,17.003,15.815,23.938C392.417,358.613,426.903,310.651,435.35,254.175z"/>
<path style="fill:#12DB84;" d="M207.949,372.157l-104.6-151.13C45.822,223.659,0,271.112,0,329.29
	c0,59.861,48.526,108.387,108.387,108.387c44.635,0,82.952-26.983,99.572-65.507v-0.01
	C207.956,372.159,207.952,372.158,207.949,372.157z"/>
<path style="fill:#5FED65;" d="M103.35,221.027c-9.989,0.457-19.624,2.269-28.729,5.25c-0.001,0.274-0.008,0.546-0.008,0.82
	c0,8.346,0.564,16.57,1.667,24.622c7.917,58.411,43.655,107.999,93.427,134.962c7.417,4.022,15.15,7.533,23.148,10.499
	c6.093-7.572,11.203-15.967,15.104-25.01v-0.01c-0.003-0.001-0.006-0.002-0.009-0.003L103.35,221.027z"/>
<path style="fill:#C8E5FC;" d="M104.63,247.835c-43.293,1.961-77.791,37.677-77.791,81.455c0,45.037,36.511,81.548,81.548,81.548
	c33.6,0,62.431-20.315,74.932-49.332L104.63,247.835z"/>
<path style="fill:#B8DAF2;" d="M167.503,385.445c6.588-6.936,11.975-15.023,15.815-23.938L104.63,247.835
	c-9.891,0.448-19.313,2.676-27.979,6.34C85.097,310.651,119.583,358.613,167.503,385.445z"/>
<path style="fill:#5FED65;" d="M408.65,221.027C405.471,139.468,338.343,74.323,256,74.323s-149.471,65.146-152.65,146.704
	c-0.083,2.013-0.124,4.036-0.124,6.07c0,7.03,0.475,13.956,1.404,20.738c6.668,49.197,36.769,90.963,78.689,113.672
	c7.825,4.243,16.062,7.824,24.64,10.653v0.01c15.102,4.996,31.257,7.701,48.041,7.701s32.939-2.705,48.041-7.701v-0.01
	c8.578-2.828,16.815-6.41,24.64-10.653c41.92-22.71,72.021-64.475,78.689-113.672c0.929-6.782,1.404-13.708,1.404-20.738
	C408.774,225.063,408.733,223.04,408.65,221.027z"/>
<path style="fill:#12DB84;" d="M263.701,372.17v-0.01c-8.578-2.828-16.815-6.41-24.64-10.653
	c-41.92-22.71-72.021-64.475-78.689-113.672c-0.929-6.782-1.404-13.708-1.404-20.738c0-2.034,0.041-4.057,0.124-6.07
	c2.812-72.129,55.644-131.412,124.779-144.157c-9.038-1.666-18.35-2.548-27.871-2.548c-82.343,0-149.471,65.146-152.65,146.704
	c-0.083,2.013-0.124,4.036-0.124,6.07c0,7.03,0.475,13.956,1.404,20.738c6.668,49.197,36.769,90.963,78.689,113.672
	c7.825,4.243,16.062,7.824,24.64,10.653v0.01c15.102,4.996,31.257,7.701,48.041,7.701c9.518,0,18.835-0.872,27.871-2.536
	C276.973,376.064,270.238,374.333,263.701,372.17z"/>
<path style="fill:#E0F1FC;" d="M348.759,138.89c-22.885-24.052-55.019-39.215-90.694-39.773c-0.681-0.01-1.373-0.021-2.065-0.021
	c-70.689,0-128,57.311-128,128c0,0.341,0,0.692,0.01,1.032c0.547,70.214,57.641,126.968,127.99,126.968c70.689,0,128-57.311,128-128
	C384,192.908,370.591,161.848,348.759,138.89z"/>
<path style="fill:#D3E9F4;" d="M142.467,239.484c-0.01-0.341-0.01-0.692-0.01-1.032c0-70.689,57.311-128,128-128
	c0.692,0,1.383,0.01,2.065,0.021c25.73,0.402,49.617,8.405,69.522,21.857c-22.262-20.22-51.668-32.707-83.978-33.212
	c-0.681-0.01-1.373-0.021-2.065-0.021c-70.689,0-128,57.311-128,128c0,0.341,0,0.692,0.01,1.032
	c0.341,43.755,22.644,82.28,56.426,105.103C158.887,310.031,142.757,276.644,142.467,239.484z"/>
<path style="fill:#FC5151;" d="M311.742,291.778v8.96c0,6.648-5.388,12.036-12.036,12.036h-87.412
	c-6.648,0-12.036-5.388-12.036-12.036v-8.96c0-6.648,5.388-12.036,12.036-12.036h87.412
	C306.354,279.742,311.742,285.13,311.742,291.778z"/>
<path style="fill:#ACD7EA;" d="M269.676,230.175c-3.222,0-6.23-2.026-7.327-5.247c-1.38-4.046,0.783-8.446,4.83-9.826l60.573-20.645
	c4.047-1.377,8.447,0.782,9.826,4.831c1.38,4.046-0.783,8.446-4.83,9.826l-60.573,20.645
	C271.348,230.041,270.505,230.175,269.676,230.175z"/>
<path style="fill:#FC5151;" d="M269.677,222.431c2.581,7.556-1.455,15.773-9.012,18.343c-7.556,2.581-15.773-1.455-18.343-9.012
	c-2.581-7.556,1.455-15.773,9.012-18.343C258.89,210.839,267.107,214.875,269.677,222.431z"/>
<g>
	<path style="fill:#ACD7EA;" d="M256,99.097c-1.903,0-3.795,0.05-5.677,0.132v17.416c0,4.276,3.466,7.742,7.742,7.742
		c4.277,0,7.742-3.466,7.742-7.742V99.48c-2.561-0.194-5.141-0.321-7.742-0.362C257.383,99.107,256.692,99.097,256,99.097z"/>
	<path style="fill:#ACD7EA;" d="M348.759,138.89c-1.78-1.87-3.621-3.68-5.509-5.439l-11.402,11.402
		c-3.023,3.023-3.023,7.926,0,10.948c1.512,1.511,3.494,2.268,5.475,2.268c1.981,0,3.963-0.756,5.475-2.268l11.129-11.129
		C352.258,142.695,350.539,140.763,348.759,138.89z"/>
	<path style="fill:#ACD7EA;" d="M365.419,222.452c-4.277,0-7.742,3.466-7.742,7.742c0,4.276,3.465,7.742,7.742,7.742h17.548
		c0.194,0,0.384-0.014,0.574-0.029c0.297-3.564,0.458-7.168,0.458-10.81c0-1.535-0.036-3.061-0.09-4.582
		c-0.31-0.037-0.622-0.063-0.942-0.063H365.419z"/>
	<path style="fill:#ACD7EA;" d="M153.29,228.129c0-4.276-3.466-7.742-7.742-7.742h-17.374c-0.115,2.222-0.174,4.459-0.174,6.71
		c0,0.341,0,0.692,0.01,1.032c0.021,2.6,0.128,5.18,0.3,7.742h17.238C149.824,235.871,153.29,232.405,153.29,228.129z"/>
	<path style="fill:#ACD7EA;" d="M160.387,142.01l12.337,12.337c1.511,1.511,3.493,2.268,5.474,2.268
		c1.981,0,3.963-0.756,5.474-2.268c3.023-3.023,3.023-7.926,0-10.948l-12.312-12.312
		C167.487,134.504,163.822,138.152,160.387,142.01z"/>
	<path style="fill:#ACD7EA;" d="M435.606,354.582c-1.258,0-2.534-0.308-3.716-0.955l-32-17.548
		c-3.749-2.056-5.121-6.761-3.066-10.512c2.055-3.748,6.761-5.122,10.512-3.066l32,17.548c3.749,2.056,5.121,6.761,3.066,10.512
		C440.993,353.129,438.342,354.582,435.606,354.582z"/>
	<path style="fill:#ACD7EA;" d="M83.618,356.645c-2.284,0-4.547-1.006-6.075-2.937c-2.654-3.353-2.087-8.221,1.265-10.876
		l24.774-19.613c3.352-2.655,8.221-2.088,10.876,1.264c2.654,3.353,2.087,8.221-1.265,10.876l-24.774,19.613
		C86.997,356.099,85.301,356.645,83.618,356.645z"/>
</g>
<g>
</g>
<g>
</g>
<g>
</g>
<g>
</g>
<g>
</g>
<g>
</g>
<g>
</g>
<g>
</g>
<g>
</g>
<g>
</g>
<g>
</g>
<g>
</g>
<g>
</g>
<g>
</g>
<g>
</g>
</svg>
