<svg height="512" viewBox="0 0 512 512" width="512" xmlns="http://www.w3.org/2000/svg"><g id="flat"><path d="m288 136a8 8 0 0 1 -8-8v-24h-32v24a8 8 0 0 1 -16 0v-24a16.019 16.019 0 0 1 16-16h32a16.019 16.019 0 0 1 16 16v24a8 8 0 0 1 -8 8z" fill="#d18d28"/><path d="m184 128a8 8 0 0 1 -8-8v-16a16 16 0 0 0 -32 0v16a8 8 0 0 1 -16 0v-16a32 32 0 0 1 64 0v16a8 8 0 0 1 -8 8z" fill="#5f4623"/><path d="m488 400h-456a267.955 267.955 0 0 1 -8-64.985v-111.015h416l24.914 41.523a162 162 0 0 1 23.086 83.348z" fill="#eaeae8"/><path d="m328 304v80h-299.48q-1.515-8.085-2.51-16.25a267.019 267.019 0 0 1 -2.01-32.73v-31.02z" fill="#eaeae8"/><path d="m328 304v80h-299.48q-1.515-8.085-2.51-16.25a267.019 267.019 0 0 1 -2.01-32.73v-31.02z" fill="#02b6b9"/><path d="m224 256h104v48h-104z" fill="#8feaff"/><circle cx="88" cy="392" fill="#eaeae8" r="32"/><path d="m88 432a40 40 0 1 1 40-40 40.045 40.045 0 0 1 -40 40zm0-64a24 24 0 1 0 24 24 24.028 24.028 0 0 0 -24-24z" fill="#422509"/><path d="m56 256h128v48h-128z" fill="#8feaff"/><path d="m56 192h352a32 32 0 0 1 32 32 0 0 0 0 1 0 0h-416a0 0 0 0 1 0 0 32 32 0 0 1 32-32z" fill="#cbcbcb"/><path d="m220.33 212.85v215.36a36.188 36.188 0 0 1 -7.99 3.79h-.01a36.719 36.719 0 0 1 -8-3.79v-215.36a56.58 56.58 0 0 1 8-4.85h.01a56.473 56.473 0 0 1 7.99 4.85z" fill="#e82f3e"/><path d="m144.168 432a63.663 63.663 0 0 1 -34.968-51.653l-1.674-20.088a440.759 440.759 0 0 1 .665-80.457 91.082 91.082 0 0 1 35.98-63.8 91.082 91.082 0 0 1 35.98 63.8 440.848 440.848 0 0 1 .665 80.457l-1.674 20.088a63.663 63.663 0 0 1 -34.974 51.653z" fill="#fbb540"/><path d="m150.17 222.77v204.45a61.705 61.705 0 0 1 -8 4.78 62.384 62.384 0 0 1 -8-4.78v-204.46a89.549 89.549 0 0 1 8-6.76 89.654 89.654 0 0 1 8 6.77z" fill="#fbb540"/><path d="m152.17 222.77v204.45a61.705 61.705 0 0 1 -8 4.78 62.384 62.384 0 0 1 -8-4.78v-204.46a89.549 89.549 0 0 1 8-6.76 89.654 89.654 0 0 1 8 6.77z" fill="#d18d28"/><path d="m112 144h96v48h-96z" fill="#5f4623"/><path d="m208 144-48 16-48-16a32 32 0 0 1 32-32h32a32 32 0 0 1 32 32z" fill="#8f6934"/><path d="m208 128h112v64h-112z" fill="#fbb540"/><path d="m368 328h16" fill="none" stroke="#000" stroke-linecap="round" stroke-linejoin="round" stroke-width="16"/><path d="m328 368h120l16 32h-136z" fill="#009193"/><path d="m328 304h51.181a133.728 133.728 0 0 1 108.819 56v16h-160z" fill="#02b6b9"/><path d="m464 400h24v-24h-40z" fill="#cbcbcb"/><path d="m264 336h-16a8 8 0 0 1 0-16h16a8 8 0 0 1 0 16z" fill="#009193"/><path d="m288 168h-8a8 8 0 0 1 0-16h8a8 8 0 0 1 0 16z" fill="#e82f3e"/><path d="m248 176h-8a8 8 0 0 1 0-16h8a8 8 0 0 1 0 16z" fill="#0296e5"/><path d="m481.65 304h-121.65v-48h99.2l5.71 9.52a161.4 161.4 0 0 1 16.74 38.48z" fill="#43dcfe"/><path d="m465.65 304h-105.65v-48h83.2l5.71 9.52a161.4 161.4 0 0 1 16.74 38.48z" fill="#8feaff"/><path d="m320 304h8v96h-8z" fill="#009193"/><path d="m320 224h8v80h-8z" fill="#cbcbcb"/><circle cx="392" cy="392" fill="#eaeae8" r="32"/><path d="m392 432a40 40 0 1 1 40-40 40.045 40.045 0 0 1 -40 40zm0-64a24 24 0 1 0 24 24 24.028 24.028 0 0 0 -24-24z" fill="#422509"/><path d="m212.335 432a36.964 36.964 0 0 1 -25.235-33.268l-6.769-138.955a57.889 57.889 0 0 1 32-51.777 57.889 57.889 0 0 1 32 51.777l-6.769 138.955a36.964 36.964 0 0 1 -25.227 33.268z" fill="#e82f3e"/><path d="m220.33 212.85v215.36a36.188 36.188 0 0 1 -7.99 3.79h-.01a36.719 36.719 0 0 1 -8-3.79v-215.36a56.58 56.58 0 0 1 8-4.85h.01a56.473 56.473 0 0 1 7.99 4.85z" fill="#961b20"/></g></svg>