<?xml version="1.0" encoding="iso-8859-1"?>
<!-- Generator: Adobe Illustrator 19.0.0, SVG Export Plug-In . SVG Version: 6.00 Build 0)  -->
<svg version="1.1" id="Layer_1" xmlns="http://www.w3.org/2000/svg" xmlns:xlink="http://www.w3.org/1999/xlink" x="0px" y="0px"
	 viewBox="0 0 64 64" style="enable-background:new 0 0 64 64;" xml:space="preserve"
	 >
	 <g><g><path d="m37 46h-6l-3 2-4-1-4 1-3-2h-6c-4.42 0-8 3.58-8 8v7h21 21v-7c0-4.42-3.58-8-8-8z" fill="#5d9cec"/></g><g><path d="m48 46c1.11 0 2 .89 2 2 0 1.1-.89 2-2 2-1.1 0-2-.9-2-2 0-1.11.9-2 2-2z" fill="#aab2bd"/></g><g><path d="m48 46c-1.1 0-2 .89-2 2 0 1.1.9 2 2 2 1.11 0 2-.9 2-2 0-1.11-.89-2-2-2zm-8.66-3h17.32c.76 1.31 1.229 2.81 1.32 4.42-4.54 1.29-7.88 5.43-7.98 10.37v.01c-.64.13-1.31.2-2 .2s-1.36-.07-2-.2c-.08-4.95-3.43-9.09-7.98-10.38.09-1.61.56-3.11 1.32-4.42z" fill="#545c66"/></g><g><path d="m35 48c0-.68.05-1.35.15-2 .96-6.23 6.35-11 12.85-11 7.18 0 13 5.82 13 13s-5.82 13-13 13-13-5.82-13-13zm3 0c0 4.83 3.44 8.87 8 9.8.64.13 1.31.2 2 .2s1.36-.07 2-.2c4.56-.93 8-4.97 8-9.8 0-.2-.01-.39-.02-.58-.091-1.61-.561-3.11-1.32-4.42-1.73-2.99-4.96-5-8.66-5s-6.93 2.01-8.66 5c-.76 1.31-1.229 2.81-1.32 4.42-.01.19-.02.38-.02.58z" fill="#656d78"/></g><g><path d="m39 15v6l-4-4s-5 3-11 3-11-3-11-3l-4 4v-5c0-7.19 5.81-13 13-13h10v5c3.87 0 7 3.13 7 7z" fill="#965353"/></g><g><path d="m39 21v-6c0-3.87-3.13-7-7-7v-5h-4v5c0 2.209 1.791 4 4 4 1.654 0 3 1.346 3 3v2z" fill="#844747"/></g><g><path d="m39 21v6c0 5.76-3.24 10.76-8 13.27-2.09 1.1-4.47 1.73-7 1.73s-4.91-.63-7-1.73c-4.76-2.51-8-7.51-8-13.27v-6l4-4s5 3 11 3 11-3 11-3z" fill="#eac6bb"/></g><g><path d="m35 17-.004.002v9.998c0 5.76-3.24 10.76-8 13.27-1.528.805-3.214 1.354-4.998 1.594.655.087 1.322.136 2.002.136 2.53 0 4.91-.63 7-1.73 4.76-2.51 8-7.51 8-13.27v-6z" fill="#d3b1a9"/></g><g><path d="m31 40.27v5.73l-3 2-4-1-4 1-3-2v-5.73c2.09 1.1 4.47 1.73 7 1.73s4.91-.63 7-1.73z" fill="#87bcf4"/></g></g><g><g><g><path d="m2.998 55.001c-.553 0-1-.447-1-1 0-4.963 4.037-9 9-9 .553 0 1 .447 1 1s-.447 1-1 1c-3.859 0-7 3.141-7 7 0 .553-.447 1-1 1z"/></g><g><path d="m16.998 47.002-6-.001c-.553 0-1-.448-1-1 0-.553.448-1 1-1l6 .001c.553 0 1 .448 1 1 0 .553-.448 1-1 1z"/></g><g><path d="m35.154 47.002-4.156-.002c-.553 0-1-.448-1-1 0-.553.448-1 1-1l4.156.002c.553 0 1 .448 1 1 0 .553-.448 1-1 1z"/></g><g><path d="m3 62c-.552 0-1-.447-1-1l-.002-6.999c0-.552.447-1 1-1 .552 0 1 .447 1 1l.002 6.999c0 .552-.447 1-1 1z"/></g></g><g><path d="m16.998 47.002c-.553 0-1-.447-1-1v-5.731c0-.553.447-1 1-1s1 .447 1 1v5.731c0 .553-.447 1-1 1z"/></g><g><path d="m30.998 47c-.553 0-1-.447-1-1v-5.729c0-.553.447-1 1-1s1 .447 1 1v5.729c0 .553-.447 1-1 1z"/></g><g><path d="m23.998 43.001c-8.822 0-16-7.178-16-16 0-.553.447-1 1-1s1 .447 1 1c0 7.72 6.28 14 14 14s14-6.28 14-14c0-.553.447-1 1-1s1 .447 1 1c0 8.822-7.178 16-16 16z"/></g><g><path d="m8.998 28.001c-.553 0-1-.447-1-1v-11.001c0-.553.447-1 1-1s1 .447 1 1v11.001c0 .553-.447 1-1 1z"/></g><g><path d="m38.998 28.001c-.553 0-1-.447-1-1v-11.999c0-.553.447-1 1-1s1 .447 1 1v11.999c0 .553-.447 1-1 1z"/></g><g><path d="m38.998 16.002c-.553 0-1-.447-1-1 0-3.309-2.691-6-6-6-.553 0-1-.447-1-1s.447-1 1-1c4.411 0 8 3.589 8 8 0 .553-.447 1-1 1z"/></g><g><path d="m31.998 9.002c-.553 0-1-.447-1-1v-5.002c0-.553.447-1 1-1s1 .447 1 1v5.002c0 .553-.447 1-1 1z"/></g><g><path d="m31.998 4h-10c-.553 0-1-.447-1-1s.447-1 1-1h10c.553 0 1 .447 1 1s-.447 1-1 1z"/></g><g><path d="m8.998 17c-.553 0-1-.447-1-1 0-7.72 6.28-14 14-14 .553 0 1 .447 1 1s-.447 1-1 1c-6.617 0-12 5.383-12 12 0 .553-.447 1-1 1z"/></g><g><g><path d="m38.998 22c-.256 0-.512-.098-.707-.293l-4-4c-.391-.391-.391-1.023 0-1.414s1.023-.391 1.414 0l4 4c.391.391.391 1.023 0 1.414-.195.195-.451.293-.707.293z"/></g><g><path d="m23.998 21c-6.206 0-11.301-3.015-11.515-3.143-.473-.284-.626-.897-.343-1.371.283-.472.894-.629 1.371-.345.049.03 4.851 2.859 10.487 2.859s10.438-2.829 10.486-2.858c.478-.284 1.088-.127 1.371.345.283.474.13 1.087-.343 1.371-.213.127-5.308 3.142-11.514 3.142z"/></g><g><path d="m8.998 22c-.256 0-.512-.098-.707-.293-.391-.391-.391-1.023 0-1.414l4-4c.391-.391 1.023-.391 1.414 0s.391 1.023 0 1.414l-4 4c-.195.195-.451.293-.707.293z"/></g></g><g><path d="m19.997 49c-.19 0-.383-.055-.554-.168l-3-1.998c-.459-.306-.584-.927-.277-1.387.306-.46.925-.583 1.387-.277l3 1.998c.459.306.584.927.277 1.387-.192.289-.51.445-.833.445z"/></g><g><path d="m19.997 49c-.448 0-.855-.303-.969-.758-.135-.536.191-1.078.728-1.212l4-.999c.534-.135 1.078.19 1.212.728.135.536-.191 1.078-.728 1.212l-4 .999c-.081.02-.163.03-.243.03z"/></g><g><path d="m27.999 49c-.323 0-.641-.156-.833-.445-.307-.46-.182-1.081.277-1.387l3-1.998c.46-.306 1.08-.183 1.387.277s.182 1.081-.277 1.387l-3 1.998c-.171.113-.364.168-.554.168z"/></g><g><path d="m27.999 49c-.08 0-.162-.01-.243-.03l-4-.999c-.536-.134-.862-.676-.728-1.212.133-.535.675-.863 1.212-.728l4 .999c.536.134.862.676.728 1.212-.114.454-.521.758-.969.758z"/></g><g><path d="m24.028 53c-.553 0-1.005-.447-1.005-1s.442-1 .994-1h.011c.552 0 1 .447 1 1s-.448 1-1 1z"/></g><g><path d="m24.028 59.001c-.553 0-1.005-.447-1.005-1s.442-1 .994-1h.011c.552 0 1 .447 1 1s-.448 1-1 1z"/></g><g><g><path d="m48.002 62c-7.72 0-14-6.281-14-14.003 0-7.72 6.28-14.001 14-14.001s14 6.281 14 14.001c0 7.722-6.28 14.003-14 14.003zm0-26.004c-6.617 0-12 5.384-12 12.001 0 6.618 5.383 12.003 12 12.003s12-5.385 12-12.003c0-6.617-5.383-12.001-12-12.001z"/></g><g><path d="m48.002 59c-6.065 0-11-4.936-11-11.003 0-6.066 4.935-11.001 11-11.001s11 4.935 11 11.001c0 6.067-4.935 11.003-11 11.003zm0-20.004c-4.963 0-9 4.038-9 9.001 0 4.964 4.037 9.003 9 9.003s9-4.039 9-9.003c0-4.963-4.037-9.001-9-9.001z"/></g><g><path d="m48.002 50.996c-1.654 0-3-1.346-3-3s1.346-3.001 3-3.001 3 1.347 3 3.001-1.346 3-3 3zm0-4.001c-.552 0-1 .449-1 1.001s.448 1 1 1 1-.448 1-1-.448-1.001-1-1.001z"/></g><g><path d="m56.664 43.996h-17.324c-.553 0-1-.447-1-1s.447-1 1-1h17.324c.553 0 1 .447 1 1s-.447 1-1 1z"/></g><g><path d="m50.004 58.789c-.006 0-.013 0-.019 0-.553-.011-.992-.467-.981-1.019.101-5.315 3.6-9.861 8.707-11.313.533-.153 1.084.157 1.235.688s-.157 1.084-.688 1.235c-4.255 1.21-7.17 4.998-7.254 9.427-.011.547-.456.982-1 .982z"/></g><g><path d="m46.004 58.799c-.544 0-.99-.437-1-.982-.079-4.436-2.994-8.228-7.255-9.437-.532-.15-.84-.703-.689-1.234.15-.532.705-.843 1.234-.689 5.115 1.451 8.615 6.002 8.71 11.325.01.552-.43 1.008-.982 1.018-.006-.001-.012-.001-.018-.001z"/></g></g></g></svg>