<?xml version="1.0" encoding="iso-8859-1"?>
<!-- Generator: Adobe Illustrator 19.0.0, SVG Export Plug-In . SVG Version: 6.00 Build 0)  -->
<svg version="1.1" id="Layer_1" xmlns="http://www.w3.org/2000/svg" xmlns:xlink="http://www.w3.org/1999/xlink" x="0px" y="0px"
	 viewBox="0 0 504.121 504.121" style="enable-background:new 0 0 504.121 504.121;" xml:space="preserve"><g id="XMLID_1_"><path id="XMLID_2122_" d="m255.994 88.514c-19.475-28.263-41.974-60.912-60.994-88.514-20.194 0-63.236 0-75 0 8.969 13.453 72.24 108.361 79.999 119.999l18.251 10 16.75-9.999 18.219-12.326z" fill="#ff884d"/><path id="XMLID_2237_" d="m243.5 130 11.5-10 10-7.5-10-22.5c-6.076 9.114-14.052 21.077-20 30z" fill="#ff4d4d"/><path id="XMLID_2236_" d="m390 0h-37.5-37.5c-16.305 24.457-50.467 75.7-60 90v30l27.749 10 27.251-10c12.946-19.42 67.48-101.22 80-120z" fill="#e40c57"/><path id="XMLID_2125_" d="m150 120v60l52.5 10 52.5-10 10-30-10-30c-28.278 0-88.527 0-105 0z" fill="#72c4ee"/><path id="XMLID_2124_" d="m360 120c-28.278 0-88.527 0-105 0v60l52.5 10 52.5-10c0-7.259 0-52.693 0-60z" fill="#1da1fa"/><path d="m-.2 179.962h271.063v330.24h-271.063z" fill="#edf5ff"/><path d="m254.9 179.962h255.2v330.24h-255.2z" fill="#b5dbff"/><path id="XMLID_2264_" d="m240 450h-180v-30c0-49.626 40.374-90 90-90s90 40.374 90 90z" fill="#ff4d4d"/><g fill="#3b6bab"><path id="XMLID_2134_" d="m315 330h135c0-10.492 0-19.508 0-30-16.333 0-118.559 0-135 0z"/><path id="XMLID_2_" d="m270.863 390h179.137c0-10.492 0-19.508 0-30-21.673 0-157.321 0-179.137 0z"/><path id="XMLID_3_" d="m270.863 450h179.137c0-10.492 0-19.508 0-30-21.673 0-157.321 0-179.137 0z"/></g><circle id="XMLID_2121_" cx="150" cy="300" fill="#ffcebf" r="45"/></g></svg>