<svg viewBox="0 0 504.121 504.121" xmlns="http://www.w3.org/2000/svg">

 <g>
  <title>background</title>
  <rect fill="none" id="canvas_background" height="602" width="802" y="-1" x="-1"/>
 </g>
 <g>
  <title>Layer 1</title>
  <g id="svg_1">
   <path id="svg_2" fill="#eceff1" d="m490.66797,171.51953l-469.33594,0c-11.77344,0 -21.33203,9.5586 -21.33203,21.33203l0,255.14844c0,35.28516 28.71484,64 64,64l384,0c35.28516,0 64,-28.71484 64,-64l0,-255.14844c0,-11.77343 -9.55859,-21.33203 -21.33203,-21.33203zm0,0"/>
   <path id="svg_3" fill="#2196f3" d="m448,64l-384,0c-35.34766,0 -64,28.65234 -64,64l0,64.85156l512,0l0,-64.85156c0,-35.34766 -28.65234,-64 -64,-64zm0,0"/>
   <path id="svg_4" fill="#1976d2" d="m128,0l-21.33203,0c-11.77734,0 -21.33594,9.55859 -21.33594,21.33203l0,85.33594c0,11.77344 9.5586,21.33203 21.33594,21.33203l21.33203,0c11.77734,0 21.33203,-9.55859 21.33203,-21.33203l0,-85.33594c0,-11.77344 -9.55469,-21.33203 -21.33203,-21.33203zm0,0"/>
   <path id="svg_5" fill="#1976d2" d="m405.33203,0l-21.33203,0c-11.77734,0 -21.33203,9.55859 -21.33203,21.33203l0,85.33594c0,11.77344 9.55469,21.33203 21.33203,21.33203l21.33203,0c11.77735,0 21.33594,-9.55859 21.33594,-21.33203l0,-85.33594c0,-11.77344 -9.55859,-21.33203 -21.33594,-21.33203zm0,0"/>
   <g id="svg_6" fill="none">
    <text transform="rotate(-12 256,337.9999999999999) " font-weight="bold" xml:space="preserve" text-anchor="start" font-family="'Simonetta', serif" font-size="155" id="svg_10" y="389" x="110.92189" stroke-opacity="null" stroke-width="0" stroke="null" fill="#2196f3">Year</text>
   </g>
  </g>
 </g>
</svg>